<svg width="1400" height="860" viewBox="0 0 1400 860" xmlns="http://www.w3.org/2000/svg" role="img" aria-label="OpenCode implementation loop">
  <rect width="1400" height="860" fill="#020617"/>
  <text x="70" y="80" fill="#f8fafc" font-family="Arial" font-size="44" font-weight="800">OpenCode Implementation Loop</text>
  <defs><marker id="arrow" viewBox="0 0 10 10" refX="10" refY="5" markerWidth="8" markerHeight="8" orient="auto"><path d="M 0 0 L 10 5 L 0 10 z" fill="#67e8f9"/></marker></defs>
  <g fill="#0f172a" stroke="#475569" stroke-width="2" font-family="Arial">
    <rect x="120" y="170" width="300" height="130" rx="24"/><rect x="550" y="170" width="300" height="130" rx="24"/><rect x="980" y="170" width="300" height="130" rx="24"/>
    <rect x="980" y="470" width="300" height="130" rx="24"/><rect x="550" y="470" width="300" height="130" rx="24"/><rect x="120" y="470" width="300" height="130" rx="24"/>
  </g>
  <g fill="#67e8f9" font-family="Arial" font-size="26" font-weight="800">
    <text x="165" y="245">Read phase spec</text><text x="590" y="245">Generate code</text><text x="1030" y="245">Run tests</text>
    <text x="1025" y="545">Manual verify</text><text x="600" y="545">Review diff</text><text x="170" y="545">Approve next</text>
  </g>
  <g stroke="#67e8f9" stroke-width="6" fill="none" marker-end="url(#arrow)">
    <path d="M420 235 H550"/><path d="M850 235 H980"/><path d="M1130 300 V470"/><path d="M980 535 H850"/><path d="M550 535 H420"/><path d="M270 470 V300"/>
  </g>
</svg>
