<svg width="1200" height="800" viewBox="0 0 1200 800" xmlns="http://www.w3.org/2000/svg" role="img" aria-label="Channel Setup Wireframe">
<rect width="1200" height="800" fill="#020617"/>
<rect x="40" y="40" width="1120" height="720" rx="32" fill="#0f172a" stroke="#334155"/>
<text x="80" y="100" fill="#f8fafc" font-family="Arial" font-size="42" font-weight="800">Channel Setup Wireframe</text>
<rect x="80" y="130" width="320" height="220" rx="20" fill="#111827" stroke="#475569"/>
<text x="104" y="178" fill="#67e8f9" font-family="Arial" font-size="24" font-weight="700">Telegram Setup</text>
<rect x="104" y="214" width="240" height="12" rx="6" fill="#334155"/>
<rect x="104" y="248" width="205" height="12" rx="6" fill="#334155"/>
<rect x="104" y="282" width="170" height="12" rx="6" fill="#334155"/>
<rect x="440" y="130" width="320" height="220" rx="20" fill="#111827" stroke="#475569"/>
<text x="464" y="178" fill="#67e8f9" font-family="Arial" font-size="24" font-weight="700">Discord Setup</text>
<rect x="464" y="214" width="240" height="12" rx="6" fill="#334155"/>
<rect x="464" y="248" width="205" height="12" rx="6" fill="#334155"/>
<rect x="464" y="282" width="170" height="12" rx="6" fill="#334155"/>
<rect x="800" y="130" width="300" height="220" rx="20" fill="#111827" stroke="#475569"/>
<text x="824" y="178" fill="#67e8f9" font-family="Arial" font-size="24" font-weight="700">WhatsApp Setup</text>
<rect x="824" y="214" width="220" height="12" rx="6" fill="#334155"/>
<rect x="824" y="248" width="185" height="12" rx="6" fill="#334155"/>
<rect x="824" y="282" width="150" height="12" rx="6" fill="#334155"/>
<rect x="80" y="390" width="1020" height="260" rx="20" fill="#111827" stroke="#475569"/>
<text x="104" y="438" fill="#67e8f9" font-family="Arial" font-size="24" font-weight="700">Channel to Agent Bindings</text>
<rect x="104" y="474" width="940" height="12" rx="6" fill="#334155"/>
<rect x="104" y="508" width="905" height="12" rx="6" fill="#334155"/>
<rect x="104" y="542" width="870" height="12" rx="6" fill="#334155"/>
</svg>