<svg width="1200" height="800" viewBox="0 0 1200 800" xmlns="http://www.w3.org/2000/svg" role="img" aria-label="Local Web Chat Wireframe">
<rect width="1200" height="800" fill="#020617"/>
<rect x="40" y="40" width="1120" height="720" rx="32" fill="#0f172a" stroke="#334155"/>
<text x="80" y="100" fill="#f8fafc" font-family="Arial" font-size="42" font-weight="800">Local Web Chat Wireframe</text>
<rect x="80" y="130" width="660" height="530" rx="20" fill="#111827" stroke="#475569"/>
<text x="104" y="178" fill="#67e8f9" font-family="Arial" font-size="24" font-weight="700">Chat Thread</text>
<rect x="104" y="214" width="580" height="12" rx="6" fill="#334155"/>
<rect x="104" y="248" width="545" height="12" rx="6" fill="#334155"/>
<rect x="104" y="282" width="510" height="12" rx="6" fill="#334155"/>
<rect x="770" y="130" width="330" height="250" rx="20" fill="#111827" stroke="#475569"/>
<text x="794" y="178" fill="#67e8f9" font-family="Arial" font-size="24" font-weight="700">Current Job Status</text>
<rect x="794" y="214" width="250" height="12" rx="6" fill="#334155"/>
<rect x="794" y="248" width="215" height="12" rx="6" fill="#334155"/>
<rect x="794" y="282" width="180" height="12" rx="6" fill="#334155"/>
<rect x="770" y="410" width="330" height="250" rx="20" fill="#111827" stroke="#475569"/>
<text x="794" y="458" fill="#67e8f9" font-family="Arial" font-size="24" font-weight="700">Model / Tool Events</text>
<rect x="794" y="494" width="250" height="12" rx="6" fill="#334155"/>
<rect x="794" y="528" width="215" height="12" rx="6" fill="#334155"/>
<rect x="794" y="562" width="180" height="12" rx="6" fill="#334155"/>
</svg>