<svg width="1200" height="800" viewBox="0 0 1200 800" xmlns="http://www.w3.org/2000/svg" role="img" aria-label="Human Release Approval Wireframe">
<rect width="1200" height="800" fill="#020617"/>
<rect x="40" y="40" width="1120" height="720" rx="32" fill="#0f172a" stroke="#334155"/>
<text x="80" y="100" fill="#f8fafc" font-family="Arial" font-size="42" font-weight="800">Human Release Approval Wireframe</text>
<rect x="80" y="130" width="500" height="250" rx="20" fill="#111827" stroke="#475569"/>
<text x="104" y="178" fill="#67e8f9" font-family="Arial" font-size="24" font-weight="700">Test Results</text>
<rect x="104" y="214" width="420" height="12" rx="6" fill="#334155"/>
<rect x="104" y="248" width="385" height="12" rx="6" fill="#334155"/>
<rect x="104" y="282" width="350" height="12" rx="6" fill="#334155"/>
<rect x="610" y="130" width="490" height="250" rx="20" fill="#111827" stroke="#475569"/>
<text x="634" y="178" fill="#67e8f9" font-family="Arial" font-size="24" font-weight="700">Changelog Draft</text>
<rect x="634" y="214" width="410" height="12" rx="6" fill="#334155"/>
<rect x="634" y="248" width="375" height="12" rx="6" fill="#334155"/>
<rect x="634" y="282" width="340" height="12" rx="6" fill="#334155"/>
<rect x="80" y="420" width="1020" height="220" rx="20" fill="#111827" stroke="#475569"/>
<text x="104" y="468" fill="#67e8f9" font-family="Arial" font-size="24" font-weight="700">Explicit Approval Gate</text>
<rect x="104" y="504" width="940" height="12" rx="6" fill="#334155"/>
<rect x="104" y="538" width="905" height="12" rx="6" fill="#334155"/>
<rect x="104" y="572" width="870" height="12" rx="6" fill="#334155"/>
</svg>